<mxfile host="drawio-plugin" modified="2023-12-31T08:23:58.614Z" agent="5.0 (Windows NT 6.2; Win64; x64) AppleWebKit/537.36 (KHTML, like Gecko) Chrome/104.0.5112.102 Safari/537.36" etag="uB6X0bWv72aBj2PI7tU5" version="20.5.3" type="embed"><diagram id="wTwCpN8KgwEj7-i8BH0U" name="Page-1"><mxGraphModel dx="657" dy="563" grid="1" gridSize="10" guides="1" tooltips="1" connect="1" arrows="1" fold="1" page="1" pageScale="1" pageWidth="850" pageHeight="1100" math="0" shadow="0"><root><mxCell id="0"/><mxCell id="1" parent="0"/><mxCell id="9" value="&lt;font style=&quot;font-size: 17px;&quot;&gt;ServiceHandler&lt;/font&gt;" style="rounded=0;whiteSpace=wrap;html=1;fillColor=#4D4D4D;align=center;strokeColor=#B3B3B3;" parent="1" vertex="1"><mxGeometry x="230" y="230" width="265" height="50" as="geometry"/></mxCell><mxCell id="10" value="I" style="ellipse;whiteSpace=wrap;html=1;aspect=fixed;strokeColor=#B3B3B3;strokeWidth=0;fontSize=25;fontColor=#000000;fillColor=#00CC00;" parent="1" vertex="1"><mxGeometry x="240" y="235" width="40" height="40" as="geometry"/></mxCell><mxCell id="11" value="&lt;font style=&quot;font-size: 17px;&quot;&gt;EngineDiagnosticHandler&lt;/font&gt;" style="rounded=0;whiteSpace=wrap;html=1;fillColor=#4D4D4D;align=center;strokeColor=#B3B3B3;" parent="1" vertex="1"><mxGeometry x="20" y="355" width="305" height="50" as="geometry"/></mxCell><mxCell id="12" value="K" style="ellipse;whiteSpace=wrap;html=1;aspect=fixed;strokeColor=#B3B3B3;strokeWidth=0;fontSize=25;fontColor=#000000;fillColor=#3399FF;" parent="1" vertex="1"><mxGeometry x="30" y="360" width="40" height="40" as="geometry"/></mxCell><mxCell id="13" value="&lt;font style=&quot;font-size: 17px;&quot;&gt;OilChangeHandler&lt;/font&gt;" style="rounded=0;whiteSpace=wrap;html=1;fillColor=#4D4D4D;align=center;strokeColor=#B3B3B3;" parent="1" vertex="1"><mxGeometry x="390" y="360" width="265" height="50" as="geometry"/></mxCell><mxCell id="14" value="K" style="ellipse;whiteSpace=wrap;html=1;aspect=fixed;strokeColor=#B3B3B3;strokeWidth=0;fontSize=25;fontColor=#000000;fillColor=#3399FF;" parent="1" vertex="1"><mxGeometry x="400" y="365" width="40" height="40" as="geometry"/></mxCell><mxCell id="15" value="" style="endArrow=classic;html=1;rounded=0;fontSize=25;fontColor=#000000;entryX=0.06;entryY=1.089;entryDx=0;entryDy=0;entryPerimeter=0;exitX=0.5;exitY=0;exitDx=0;exitDy=0;" parent="1" target="9" edge="1" source="11"><mxGeometry width="50" height="50" relative="1" as="geometry"><mxPoint x="180" y="350" as="sourcePoint"/><mxPoint x="230" y="300" as="targetPoint"/></mxGeometry></mxCell><mxCell id="17" value="" style="endArrow=classic;html=1;rounded=0;fontSize=25;fontColor=#000000;entryX=0.89;entryY=1.067;entryDx=0;entryDy=0;entryPerimeter=0;exitX=0.479;exitY=-0.008;exitDx=0;exitDy=0;exitPerimeter=0;" parent="1" target="9" edge="1" source="13"><mxGeometry width="50" height="50" relative="1" as="geometry"><mxPoint x="510" y="350" as="sourcePoint"/><mxPoint x="470" y="290" as="targetPoint"/></mxGeometry></mxCell></root></mxGraphModel></diagram></mxfile>